<?xml version="1.0" standalone="no"?>
<!DOCTYPE svg PUBLIC "-//W3C//DTD SVG 20010904//EN"
 "http://www.w3.org/TR/2001/REC-SVG-20010904/DTD/svg10.dtd">
<svg version="1.0" xmlns="http://www.w3.org/2000/svg"
 width="260.000000pt" height="260.000000pt" viewBox="0 0 260.000000 260.000000"
 preserveAspectRatio="xMidYMid meet">
<metadata>
Created by potrace 1.11, written by Peter Selinger 2001-2013
</metadata>
<g transform="translate(0.000000,260.000000) scale(0.100000,-0.100000)"
fill="#000000" stroke="none">
<path d="M1798 2535 l-11 -25 -496 0 c-485 0 -496 0 -509 20 -16 26 -63 26
-87 0 -42 -46 -7 -472 56 -677 35 -113 95 -217 176 -303 90 -96 152 -137 252
-166 l76 -23 -70 0 c-121 -1 -381 18 -457 34 -207 43 -240 167 -177 683 24
196 19 242 -34 300 -20 22 -66 29 -102 16 -23 -9 -53 -73 -60 -130 -4 -27 1
-155 10 -284 36 -535 38 -1003 5 -1385 -13 -147 -13 -377 1 -412 29 -76 101
-98 151 -45 57 59 58 83 22 440 -58 578 -28 626 417 652 215 12 266 12 253 1
-5 -4 -31 -14 -57 -21 -158 -43 -341 -251 -406 -463 -43 -140 -69 -338 -72
-535 -2 -137 8 -162 62 -162 53 0 59 24 59 230 0 288 28 446 104 598 103 204
226 288 414 280 147 -6 241 -64 327 -203 53 -85 97 -199 121 -316 13 -64 18
-139 19 -319 1 -164 5 -242 13 -257 16 -30 62 -30 88 -2 35 39 20 332 -28 558
-70 332 -218 544 -413 592 -76 19 -76 29 1 24 38 -3 130 -7 204 -9 308 -12
391 -60 413 -242 9 -73 7 -129 -16 -377 -32 -337 -33 -372 -11 -426 19 -48 51
-71 98 -71 42 0 82 42 92 97 9 48 -2 397 -18 538 -19 182 -14 788 11 1166 23
358 21 404 -26 459 -33 40 -88 42 -126 4 -47 -47 -52 -104 -27 -314 12 -101
22 -252 23 -335 2 -146 1 -152 -26 -208 -35 -69 -80 -100 -185 -122 -76 -16
-340 -36 -452 -34 l-65 1 65 14 c193 42 321 175 408 425 59 167 94 382 96 590
1 112 -1 129 -18 148 -27 30 -73 28 -88 -4z"/>
</g>
</svg>
